<svg xmlns="http://www.w3.org/2000/svg" version="1.1" viewBox="0.01 83.44 1199.98 1033.11" style="&#10;    fill: 1EFEBB;&#10;">
 <path d="m512.52 779.13c0 62.117-50.359 112.47-112.48 112.47-62.117 0-112.47-50.355-112.47-112.47 0-62.117 50.355-112.48 112.47-112.48 62.117 0 112.48 50.359 112.48 112.48" style="&#10;    fill: #1EFEBB;&#10;"/>
 <path d="m912.42 704.14c0 62.117-50.355 112.48-112.47 112.48-62.121 0-112.48-50.359-112.48-112.48s50.355-112.47 112.48-112.47c62.117 0 112.47 50.355 112.47 112.47" style="&#10;    fill: #1EFEBB;&#10;"/>
 <path d="m999.89 241.77h-799.79c-27.551 0-49.992 22.43-49.992 49.992v449.88c0 27.586 22.441 49.992 49.992 49.992h38.125c-0.32422-4.1523-0.63672-8.2578-0.63672-12.492 0-12.887 1.6914-25.441 4.5352-37.5h-42.023v-449.89h799.79v449.88h-42.035c-4.2617 18.012-11.52 34.859-21.238 49.992h63.262c27.562 0 49.992-22.402 49.992-49.992l0.003906-224.93v-224.95c0.011718-27.551-22.418-49.98-49.98-49.98z" style="&#10;    fill: #1EFEBB;&#10;"/>
 <path d="m899.8 391.73c0 27.609-22.383 49.992-49.992 49.992s-49.992-22.383-49.992-49.992 22.383-49.988 49.992-49.988 49.992 22.379 49.992 49.988" style="&#10;    fill: #1EFEBB;&#10;"/>
 <path d="m345.64 575.77-88.355-88.355 88.355-88.355 88.379 88.355zm-53.016-88.355 53.016 53.016 53.039-53.016-53.039-53.016z" style="&#10;    fill: #1EFEBB;&#10;"/>
 <path d="m474.91 585.44c-10.344 0-18.742-8.3984-18.742-18.742s8.3984-18.742 18.742-18.742c91.355-0.023437 228.49-17.652 247.28-56.746 4.5352-9.4453 0.50391-22.164-11.988-37.75-6.4688-8.0742-5.1484-19.895 2.9297-26.363 8.0742-6.4219 19.859-5.1484 26.352 2.9297 27.73 34.668 24.266 61.246 16.477 77.422-35.688 74.238-240.39 77.992-281.05 77.992z" style="&#10;    fill: #1EFEBB;&#10;"/>
 <path d="m609.88 376.75s-45.012 0-45.012-45.012c0-8.2695-6.6953-14.988-14.988-14.988-8.293 0-14.988 6.707-14.988 14.988 0 45.012-45 45.012-45 45.012-8.2695 0-14.988 6.6836-14.988 14.988 0 8.293 6.7188 14.988 14.988 14.988 0 0 45 0 45 45.012 0 8.2695 6.6953 14.988 14.988 14.988 8.293 0 14.988-6.7188 14.988-14.988 0-45.012 45.012-45.012 45.012-45.012 8.2695 0 14.977-6.6836 14.977-14.988 0-8.3047-6.6992-14.988-14.977-14.988z" style="&#10;    fill: #1EFEBB;&#10;"/>
 <path d="m799.95 866.59c-224.95 0-224.95 249.95-224.95 249.95h449.89s0-249.95-224.94-249.95z" style="&#10;    fill: #1EFEBB;&#10;"/>
 <path d="m1182.9 733.58c7.3203-30.805 15.625-65.746 16.918-90.66 1.5117-29.965-7.3438-58.812-15.191-84.262-5.0273-16.355-9.7812-31.777-9.7812-41.965s4.75-25.609 9.7812-41.965c7.8359-25.465 16.703-54.301 15.191-84.301-1.2969-24.875-9.6016-59.82-16.918-90.625-3.3359-14.113-6.4688-27.266-8.4961-37.789-2.3047-11.988 2.2695-33.828 6.3242-53.086 8.6406-40.98 18.395-87.406-16.246-112.43-40.105-28.848-99.984-4.2734-157.92 19.477-30.875 12.695-62.797 25.801-81.648 25.801-20.195 0-49.68-11.785-78.215-23.207-32.891-13.164-66.949-26.773-96.742-26.773-30.898 0-58.992 14.051-86.16 27.637-22.969 11.473-44.676 22.332-63.754 22.355-19.055-0.023437-40.75-10.883-63.73-22.355-27.168-13.57-55.258-27.637-86.16-27.637-29.797 0-63.852 13.621-96.754 26.773-28.523 11.426-58.02 23.207-78.203 23.207-18.816 0-50.746-13.105-81.625-25.777-57.938-23.758-117.82-48.309-157.93-19.484-34.668 25.02-24.902 71.422-16.262 112.38 4.0547 19.285 8.6641 41.125 6.3242 53.16-2.0273 10.559-5.1719 23.82-8.543 37.98-7.2969 30.754-15.574 65.578-16.859 90.43-1.5117 29.977 7.3672 58.801 15.18 84.25 5.0273 16.355 9.7812 31.801 9.7812 41.988h-0.12109c0 10.176-4.75 25.609-9.7812 41.965-7.8359 25.453-16.691 54.301-15.18 84.312 1.2969 24.852 9.5898 59.797 16.918 90.609 3.3359 14.113 6.4688 27.289 8.4961 37.777 2.3164 12.012-2.2695 33.828-6.3242 53.113-8.6406 40.957-18.406 87.383 16.262 112.43 12.961 9.3242 27.973 13.078 44.328 13.078 34.246 0 74.363-16.5 113.59-32.555 30.875-12.695 62.797-25.824 81.648-25.824 2.7109 0 5.9766 0.69531 9 1.1289-13.645-13.906-24.742-30.266-32.711-48.324-23.41 4.8242-49.57 15.527-76.93 26.746-38.902 15.961-92.148 37.871-109.69 25.188-8.293-6-0.97266-40.75 3.4219-61.559 5.2695-25.043 10.715-50.965 6.4922-72.875-2.125-11.086-5.4102-24.996-8.9531-39.828-6.8164-28.75-14.543-61.355-15.602-81.672-1.1055-21.191 6.0703-44.496 13.031-67.008 6.1562-20.062 11.988-38.988 11.988-56.676h0.12109c0-17.699-5.832-36.637-11.988-56.676-6.9375-22.547-14.113-45.863-13.031-66.996 1.0195-20.281 8.7617-52.762 15.562-81.418 3.5391-14.965 6.8633-28.957 8.9883-40.105 4.2461-21.898-1.2227-47.82-6.4922-72.91-4.3828-20.793-11.703-55.582-3.4336-61.535 17.496-12.742 70.812 9.2266 109.71 25.164 36.984 15.18 71.926 29.531 100.61 29.531 29.797 0 63.852-13.621 96.742-26.773 28.535-11.426 58.02-23.219 78.203-23.219 19.094 0 40.812 10.859 63.805 22.355 27.121 13.547 55.188 27.574 86.039 27.637h0.046875 0.070312c30.852-0.046875 58.895-14.086 86.027-27.637 22.992-11.496 44.723-22.355 63.805-22.355 20.184 0 49.668 11.785 78.203 23.219 32.902 13.152 66.961 26.773 96.754 26.773 28.703 0 63.637-14.352 100.63-29.531 38.902-15.961 92.172-37.906 109.69-25.164 8.3047 5.9883 0.98437 40.762-3.4062 61.559-5.2695 25.043-10.727 50.965-6.4922 72.863 2.125 11.102 5.4102 24.996 8.9531 39.852 6.8047 28.75 14.555 61.332 15.602 81.648 1.1055 21.191-6.082 44.496-13.031 67.02-6.1562 20.062-11.988 38.988-11.988 56.676s5.832 36.613 11.988 56.676c6.9492 22.523 14.137 45.828 13.031 67.008-1.043 20.305-8.7852 52.906-15.602 81.672-3.5391 14.832-6.8281 28.75-8.9766 39.828-4.2109 21.91 1.2461 47.832 6.5156 72.875 4.3906 20.797 11.723 55.559 3.4062 61.559-17.496 12.742-70.773-9.2266-109.69-25.188-36.996-15.191-71.926-29.531-100.63-29.531-1.8008 0-3.7422 0.48047-5.5664 0.58984 36.684 17.27 67.738 43.441 92.508 77.363 37.535 15.371 75.562 30.406 108.29 30.406 16.355 0 31.391-3.7422 44.328-13.078 34.656-25.043 24.887-71.473 16.246-112.43-4.0547-19.273-8.6406-41.098-6.3477-53.113 2.0938-10.469 5.2227-23.656 8.5586-37.766z" style="&#10;    fill: #1EFEBB;&#10;"/>
 <path d="m549.95 989.57c-33.492-27.145-81.18-47.988-149.91-47.988-199.95 0-224.95 174.96-224.95 174.96h349.91c0.003906-2.6875 0.39844-62.242 24.949-126.97z" style="&#10;    fill: #1EFEBB;&#10;"/>
</svg>