<svg version="1.1" x="0px" y="0px" viewBox="5.728574798319327 6.38610837 48.42327731092437 47.11260000000001" style="max-height: 500px" xml:space="preserve" xmlns="http://www.w3.org/2000/svg" xmlns:xlink="http://www.w3.org/1999/xlink" width="48.42327731092437" height="47.11260000000001"><path style="fill: #1EFEBB;" d="M52.21,33.75l-7.7,9.71h-3.05c-0.18,0-0.36,0.05-0.52,0.14l-1.15,0.69c0.19-0.28,0.25-0.64,0.1-0.97l-6.94-15.05  c1.7-0.11,3.04-1.51,3.04-3.24c0-0.87-0.34-1.68-0.95-2.3c-0.61-0.62-1.43-0.95-2.31-0.95h-6.14l-2.74-4.16  c-0.17-0.25-0.36-0.48-0.57-0.7c0.28,0.05,0.57,0.09,0.87,0.09c2.87,0,5.2-2.33,5.2-5.2s-2.33-5.2-5.2-5.2s-5.2,2.33-5.2,5.2  c0,1.4,0.56,2.67,1.47,3.61c-0.28-0.05-0.55-0.08-0.82-0.08c-0.63,0-1.23,0.13-1.8,0.34c0.23-0.87,0.14-1.78-0.28-2.59  c-0.46-0.87-1.23-1.51-2.18-1.78c-1.81-0.53-3.74,0.44-4.4,2.21L6.77,24.78c-0.34,0.92-0.3,1.91,0.11,2.79  c0.42,0.89,1.15,1.55,2.07,1.88l2.11,0.74c-0.39,2.3,0.34,4.59,1.88,6.23l-1.04,5.16l-5.02,5.81c-1.23,1.43-1.15,3.59,0.18,4.92  c0.68,0.68,1.6,1.06,2.56,1.06c0.05,0,0.1,0,0.15,0c0.3-0.01,0.59-0.07,0.88-0.16l6.47-0.85c0.18-0.02,0.35-0.1,0.5-0.21l2.69-2.17  h4.59c0.01,0,0.02,0,0.02,0c0.01,0,0.01,0,0.02,0h4.38c0.01,0,0.01,0,0.02,0c0.01,0,0.02,0,0.02,0h4.63c0.18,0,0.36-0.05,0.52-0.14  l7.23-4.37h3.26c0.31,0,0.59-0.14,0.78-0.38l8-10.09c0.34-0.43,0.27-1.06-0.16-1.4S52.55,33.32,52.21,33.75z M24.16,8.62  c1.76,0,3.2,1.43,3.2,3.2s-1.43,3.2-3.2,3.2s-3.2-1.43-3.2-3.2S22.39,8.62,24.16,8.62z M11.6,28.26l-1.98-0.7  c-0.41-0.15-0.74-0.44-0.93-0.84c-0.19-0.4-0.2-0.84-0.05-1.25l4.18-11.25c0.24-0.64,0.86-1.05,1.51-1.05c0.15,0,0.3,0.02,0.45,0.06  c0.42,0.12,0.77,0.41,0.97,0.8c0.2,0.39,0.24,0.83,0.1,1.25L11.6,28.26z M9.69,51.37c-0.47,0.02-0.89-0.15-1.21-0.47  c-0.6-0.6-0.63-1.56-0.08-2.2l5.19-6.01c0.11-0.13,0.19-0.29,0.22-0.46l0.89-4.44c0.34,0.19,0.7,0.37,1.09,0.5l1.81,0.65l-0.7,4.68  l-6.05,7.17C10.56,51.15,10.15,51.35,9.69,51.37z M19.96,47.98c-0.23,0-0.45,0.08-0.63,0.22l-2.75,2.22l-3.13,0.41l5.17-6.13  c0.12-0.14,0.2-0.31,0.22-0.5l0.68-4.56l2.55,0.92l1.45,7.42H19.96z M28.69,47.98h-3.11c-0.01-0.03-0.03-0.06-0.04-0.09l-1.62-8.27  c-0.07-0.34-0.31-0.63-0.64-0.75l-6.81-2.46c-2.68-0.97-4.12-3.86-3.29-6.56l3.52-10.41c0.42-1.25,1.59-2.09,2.91-2.09  c0.22,0,0.46,0.03,0.71,0.09c0.76,0.17,1.42,0.63,1.86,1.29l3.03,4.61c0.19,0.28,0.5,0.45,0.84,0.45h6.68  c0.34,0,0.66,0.13,0.89,0.37s0.37,0.55,0.37,0.88c0,0.69-0.57,1.26-1.26,1.26h-8.37l-4.17-4.34c-0.38-0.4-1.01-0.41-1.41-0.03  c-0.4,0.38-0.41,1.02-0.03,1.41L21,25.7l-2.59,6.28c-0.1,0.25-0.1,0.53,0.01,0.78c0.11,0.25,0.31,0.44,0.57,0.54l6.77,2.5  c0.41,0.15,0.7,0.49,0.79,0.91l2.18,10.54c0.02,0.08,0.03,0.18,0.03,0.31C28.75,47.71,28.73,47.85,28.69,47.98z M33.71,47.98h-2.99  c0.02-0.14,0.03-0.27,0.03-0.41c0-0.28-0.02-0.52-0.07-0.73L28.5,36.32c-0.22-1.1-0.99-2-2.05-2.39l-5.8-2.14l1.86-4.51l0.7,0.72  c0.19,0.2,0.45,0.31,0.72,0.31h6.82l7.32,15.87c0.17,0.37,0.53,0.58,0.91,0.58c0.04,0,0.08-0.02,0.12-0.03L33.71,47.98z"/><text x="0" y="75" fill="#000000" font-size="5px" font-weight="bold" font-family="'Helvetica Neue', Helvetica, Arial-Unicode, Arial, Sans-serif">Created by Icons Cart</text><text x="0" y="80" fill="#000000" font-size="5px" font-weight="bold" font-family="'Helvetica Neue', Helvetica, Arial-Unicode, Arial, Sans-serif">from the Noun Project</text></svg>