<svg xmlns="http://www.w3.org/2000/svg" y="0px" x="0px" viewBox="0 0 128.32 129.60000000000002" data-name="Layer 1" style="max-height: 500px;fill: #1EFEBB;" width="128.32" height="129.60000000000002"><title>miscellaneous 450 final</title><path d="M88.38383,108.1652a31.0677,31.0677,0,0,0,.50172-18.27286,25.61674,25.61674,0,0,0-1.47068-4.13274c22.46083-8.91606,36.42022,5.78381,37.11215,6.53482a2.00058,2.00058,0,0,0,2.94979-2.70332,36.35066,36.35066,0,0,0-11.47118-7.58616V74.24456l.58566.58683a2.00084,2.00084,0,0,0,2.8268-2.83243l-3.41246-3.41925V66.23239l.58566.58683a2.00084,2.00084,0,0,0,2.8268-2.83243L115.42,59.98071a1.99553,1.99553,0,0,0-2.8268,0L108.595,63.9868a2.00084,2.00084,0,0,0,2.8268,2.83243l.58566-.58683v2.34731L108.595,71.999a2.00084,2.00084,0,0,0,2.8268,2.83243l.58566-.58683v6.31006A37.01274,37.01274,0,0,0,99.01361,79.067V71.24l.58566.58683a2.00084,2.00084,0,1,0,2.8268-2.83243l-3.41246-3.41925V63.22783l.58566.58683a2.00084,2.00084,0,1,0,2.8268-2.83243l-3.99812-4.00608a1.99553,1.99553,0,0,0-2.8268,0L91.603,60.98223a2.00084,2.00084,0,0,0,2.8268,2.83243l.58566-.58683v2.34731L91.603,68.9944a2.00084,2.00084,0,0,0,2.8268,2.83243l.58566-.58683v8.1843c0,.03173.00787.06125.00933.09261a44.82,44.82,0,0,0-9.47938,2.70693,18.74808,18.74808,0,0,1-.92156-3.62794c-.49-2.69354-1.04443-5.746-4.39345-7.45468a11.46421,11.46421,0,0,0-5.91714-1.25483c-1.39876.01174-2.09862.01076-3.13037-.87633C67.217,65.60057,53.94,66.33411,49.56319,67.1899c-2.84046.55455-9.397-.12812-14.18377-.62693-2.901-.30222-5.40664-.56336-6.93424-.56336-7.44768,0-17.94958,2.64268-23.038,10.09052C-.52657,84.77519-.06976,91.97851.46027,100.32028a85.566,85.566,0,0,1-.37775,18.90761,13.79021,13.79021,0,0,0-.02831,2.73658c.01562.28852.03221.57607.041.85775a5.44473,5.44473,0,0,0,3.45248,5.06433,2.00336,2.00336,0,0,0,.65789.1115H14.53667a2.00115,2.00115,0,0,0,1.99906-2.003c0-3.91708-2.08789-5.794-3.9132-6.52651-.07223-.50369-.16106-1.26364-.25281-2.38155a8.14891,8.14891,0,0,1,4.73331-8.08472c-.00226,1.20936-.0158,2.63779-.05192,4.285a16.90925,16.90925,0,0,1-.33578,3.04271,26.34761,26.34761,0,0,0-.59152,6.03357l.00586.21321a5.65954,5.65954,0,0,0,3.52081,5.26972,1.97087,1.97087,0,0,0,.67254.11737H31.04552a2.00115,2.00115,0,0,0,1.99906-2.003c0-3.90632-1.94635-5.87024-3.74922-6.70745v-.79417a10.60665,10.60665,0,0,1,.28893-2.44023c.3589-1.51426.88642-3.976,1.5664-7.30277a10.49666,10.49666,0,0,0,4.19554.90048,9.95533,9.95533,0,0,0,3.00927-.47582c.1247.95769.27368,1.87681.42564,2.80651.14544.891.29478,1.80156.42558,2.7845a18.50876,18.50876,0,0,1,.11713,4.30536c-.11518,1.15116-.1308,3.45349-.12982,3.52782a5.70974,5.70974,0,0,0,3.228,5.2883,1.9887,1.9887,0,0,0,.74574.14475h9.65269a2.00115,2.00115,0,0,0,1.99906-2.003c0-3.85546-1.74235-5.836-3.392-6.70843L51.287,107.3407a11.64885,11.64885,0,0,1,2.14938-6.82481L55.659,97.41352a2.00047,2.00047,0,1,0-3.24847-2.33558l-2.22161,3.10139a15.6942,15.6942,0,0,0-2.9,9.19951l.15715,13.36208a1.93832,1.93832,0,0,0,1.756,1.96392A1.81857,1.81857,0,0,1,50.51,123.992H43.73194a2.07227,2.07227,0,0,1-.54076-1.4749c.001-.31982.02733-2.24658.11128-3.08183a22.46807,22.46807,0,0,0-.13275-5.23255c-.13568-1.024-.29088-1.9737-.44315-2.90284a36.68819,36.68819,0,0,1-.02831-14.02716,1.99878,1.99878,0,1,0-3.94541-.64356,47.44521,47.44521,0,0,0-.70536,8.3373,6.35988,6.35988,0,0,1-6.18722-.38841c.88581-7.27-.6948-11.24113-.77179-11.42879A2,2,0,1,0,27.391,94.675c.01757.04108,1.64864,4.34546.01659,12.386-.94292,4.64377-1.45244,6.93142-1.71306,8.03173a14.6278,14.6278,0,0,0-.39727,3.36448v2.2857a2.00218,2.00218,0,0,0,1.84,1.99717,1.99187,1.99187,0,0,1,1.52565,1.21767H20.80423a1.84524,1.84524,0,0,1-.67839-1.49543l-.00586-.20539a22.41149,22.41149,0,0,1,.5105-5.11519,20.88713,20.88713,0,0,0,.4168-3.76646c.122-5.53281.00488-8.732,0-8.865a2.01223,2.01223,0,0,0-.42656-1.16192l-5.99523-7.64246a2.00071,2.00071,0,1,0-3.14306,2.47642l5.18751,6.61258c-3.43912,1.29512-8.88511,5.27039-8.28468,12.61877.3104,3.80265.64618,4.38948.80724,4.67115a2.0994,2.0994,0,0,0,1.53346.99663,1.847,1.847,0,0,1,1.36069.91056H4.68a1.6001,1.6001,0,0,1-.58859-1.293c-.00976-.314-.02733-.63573-.0449-.95849a11.09957,11.09957,0,0,1-.00683-1.93947,88.987,88.987,0,0,0,.41094-19.735c-.52222-8.22538-.9-14.167,4.25581-21.71265,5.54232-8.11388,18.302-8.34763,19.73878-8.34763,1.32067,0,3.84585.26309,6.52038.54184,5.59405.58292,11.9358,1.246,15.3629.57411a42.31822,42.31822,0,0,1,6.41032-.60987c-1.71148,1.48284-3.26013,3.1506-3.59621,4.55532-.78088,3.27352,2.51152,6.56954,8.46282,11.15561,1.62814,1.25483,3.8273,2.73266,5.83222,2.73169a3.42771,3.42771,0,0,0,1.76675-.46555c.79162-.46457,2.05568-1.68811,1.62131-4.64964a17.50432,17.50432,0,0,1-.18351-5.7607,1.99933,1.99933,0,0,0-3.8439-1.10128c-.11323.38437-.64423,2.54879.07223,7.44294.02147.1516.03514.28266.042.39318A11.75876,11.75876,0,0,1,64.0437,83.048c-6.62189-5.10247-7.03966-6.69571-7.02209-7.01553.31784-.86973,3.1569-3.351,6.11847-5.35976,2.54507.23045,4.62356.67638,5.43861,1.37715a7.6824,7.6824,0,0,0,5.75413,1.84264,7.65036,7.65036,0,0,1,4.084.81863c1.51687.77364,1.80775,2.04021,2.27432,4.60367a16.64129,16.64129,0,0,0,2.31239,6.6605A17.26082,17.26082,0,0,1,85.02408,90.93a27.07268,27.07268,0,0,1-.4168,15.91968,15.832,15.832,0,0,1-4.69311,7.35589,5.71828,5.71828,0,0,1-4.26655,1.53945,5.34158,5.34158,0,0,1-2.70186-1.31743,2.0092,2.0092,0,0,0,1.57055-.64062,1.95592,1.95592,0,0,0,.29674-.4098,3.51514,3.51514,0,0,0,2.08593.20637,3.39382,3.39382,0,0,0,2.2099-1.53553,27.293,27.293,0,0,0,2.8756-8.70169c1.15961-5.91816-3.78338-9.63866-6.55942-10.78a2.00228,2.00228,0,0,0-1.52467,3.70289c.203.08607,4.9752,2.14877,4.16016,6.30449a27.3248,27.3248,0,0,1-2.05763,6.83851,3.45258,3.45258,0,0,0-3.53252.10954,3.22273,3.22273,0,0,0-.90582.86068,4.36026,4.36026,0,0,0-1.93561.68366,3.589,3.589,0,0,0-.98037.99125c-.4362-3.38239-1.01149-7.85452-1.56189-12.1369a14.99007,14.99007,0,0,0,4.41346,2.218,2.00274,2.00274,0,0,0,1.061-3.86231c-.23134-.06553-5.67312-1.66561-6.5848-6.98424-.01013-.05911-.03185-.11284-.04679-.16981-.0155-.05819-.02727-.11761-.04771-.17336a1.98571,1.98571,0,0,0-.11677-.25313c-.01556-.02922-.02776-.06027-.04472-.08857a1.99271,1.99271,0,0,0-.21584-.29708l-.00281-.00361a1.97781,1.97781,0,0,0-.944-.59844l-.02959-.01a1.94627,1.94627,0,0,0-.289-.05037c-.03825-.00452-.07547-.01235-.11414-.01461a1.98693,1.98693,0,0,0-.23286.00746c-.047.00293-.093-.002-.14031.00452-.014.00177-.02642.00727-.04026.00935-.0147.00232-.02892.00073-.04368.00336-.05253.009-.09993.029-.15075.04187a2.01994,2.01994,0,0,0-.19992.0555c-.0607.02231-.11646.0519-.17393.07965a1.97326,1.97326,0,0,0-.17881.0912c-.05411.03319-.10261.07262-.15294.11058-.05283.03979-.10652.07763-.1549.12226-.04545.04187-.08468.08876-.126.1346a1.99231,1.99231,0,0,0-.13019.15154c-.03569.04847-.06454.10092-.09578.15239a1.98963,1.98963,0,0,0-.10115.17709c-.02574.05434-.044.11144-.06491.1681a1.9656,1.9656,0,0,0-.06589.19457c-.0155.06052-.02251.12293-.03227.18522a1.95976,1.95976,0,0,0-.02648.20191c-.00348.066.00244.13308.00561.20019.00256.05434-.00256.1074.00451.16229,1.00441,7.82438,3.34609,26.05616,3.39977,26.37207l.37092,2.20354a2.00291,2.00291,0,0,0,2.12791,1.66366,1.75018,1.75018,0,0,1,1.43194.88513l-5.83125.95849a1.56062,1.56062,0,0,1-1.81165-1.13062c-.002-.01076-.0039-.02152-.00683-.03228-.07906-.401-3.65356-18.71689-3.70724-18.99662l-1.96392.37459H54.03472c0,.19757,0,.19757,1.89267,9.89588l1.69647,8.69093c.04978.25038.10249.52326.17863.7932l-.02245.00391c.0039.0176.02245.11541.02635.133A5.49393,5.49393,0,0,0,63.2267,128a5.85907,5.85907,0,0,0,.94389-.07727l8.17975-1.34482a2.00389,2.00389,0,0,0,1.64669-2.31308c-.63252-3.7156-2.70478-5.33036-4.49984-5.89371l-.12592-.74723c-.01263-.08619-.07284-.54483-.16868-1.28191a9.95024,9.95024,0,0,0,5.917,3.374,9.52875,9.52875,0,0,0,7.2915-2.38057A19.7079,19.7079,0,0,0,88.38383,108.1652Z"/><path d="M21.695,54.7728l-1.262.00734a1.856,1.856,0,0,0,1.262-.00734Z"/><path d="M2.05913,56.89008A1.9874,1.9874,0,0,0,3.455,56.32086l10.3428-10.10519,10.2735,9.97413a2.00115,2.00115,0,0,0,2.7819-2.87742l-1.70074-1.65107,12.231-12.00541,10.26276,9.96435a2.00115,2.00115,0,0,0,2.7819-2.87742l-3.70053-3.59273L65.00516,25.62289,82.128,42.3283l-2.52427,2.54647a2.00084,2.00084,0,1,0,2.83656,2.82264l8.90793-8.9863,11.84551,12.128-1.59251,1.58817a2.00154,2.00154,0,0,0,2.82094,2.84025L114.9573,44.76034,124.526,55.23816a2.00124,2.00124,0,1,0,2.94979-2.70528L116.49954,40.51464a1.99919,1.99919,0,0,0-1.428-.64942,1.95011,1.95011,0,0,0-1.45732.58194l-7.58665,7.56593L92.788,34.45759a1.99764,1.99764,0,0,0-1.42121-.60248,2.20252,2.20252,0,0,0-1.42609.59172l-4.99509,5.03908L66.41173,21.40359a1.99657,1.99657,0,0,0-2.777-.01271L43.85365,40.36,38.7665,35.421a1.99547,1.99547,0,0,0-2.78971.00782L22.28016,48.87285l-7.09634-6.88918a1.99463,1.99463,0,0,0-2.78678.00489L.6633,53.45323a2.00308,2.00308,0,0,0,1.39583,3.43686Z"/><path d="M107.334,53.85484l-.64929-.001a1.70435,1.70435,0,0,0,.64929.001Z"/><path d="M104.01126,24.03649a7.01066,7.01066,0,1,0-6.99672-7.01064A7.01219,7.01219,0,0,0,104.01126,24.03649Zm0-10.01521a3.00457,3.00457,0,1,1-2.99859,3.00456A3.00486,3.00486,0,0,1,104.01126,14.02129Z"/><path d="M104.01126,6.00912a2.00115,2.00115,0,0,0,1.99906-2.003V2.003a1.99907,1.99907,0,1,0-3.99812,0v2.003A2.00115,2.00115,0,0,0,104.01126,6.00912Z"/><path d="M102.0122,30.04562v2.003a1.99907,1.99907,0,1,0,3.99812,0v-2.003a1.99907,1.99907,0,1,0-3.99812,0Z"/><path d="M115.0061,17.02585a2.00115,2.00115,0,0,0,1.99906,2.003h1.99906a2.003,2.003,0,0,0,0-4.00608h-1.99906A2.00115,2.00115,0,0,0,115.0061,17.02585Z"/><path d="M89.0183,19.02889h1.99906a2.003,2.003,0,0,0,0-4.00608H89.0183a2.003,2.003,0,0,0,0,4.00608Z"/><path d="M113.19836,29.06561a2.00153,2.00153,0,1,0,2.82875-2.83243l-1.4134-1.41719a2.00153,2.00153,0,1,0-2.82875,2.83243Z"/><path d="M93.40979,9.2357a2.00084,2.00084,0,1,0,2.8268-2.83243l-1.4134-1.41621a2.00084,2.00084,0,1,0-2.8268,2.83243Z"/><path d="M113.19933,9.82253a1.99056,1.99056,0,0,0,1.4134-.58683l1.4134-1.41621a2.00084,2.00084,0,0,0-2.8268-2.83243l-1.4134,1.41621a2.003,2.003,0,0,0,1.4134,3.41925Z"/><path d="M93.40882,24.816l-1.4134,1.41719a2.00153,2.00153,0,1,0,2.82875,2.83243l1.4134-1.41719A2.00153,2.00153,0,1,0,93.40882,24.816Z"/><path d="M100.01314,109.97067a2.00115,2.00115,0,0,0-1.99906-2.003H94.016a2.003,2.003,0,0,0,0,4.00608h3.99812A2.00115,2.00115,0,0,0,100.01314,109.97067Z"/><path d="M107.00985,117.98284a2.00115,2.00115,0,0,0-1.99906-2.003H97.01455a2.003,2.003,0,0,0,0,4.00608h7.99625A2.00115,2.00115,0,0,0,107.00985,117.98284Z"/><path d="M126.00094,95.94939h-7.99625a2.003,2.003,0,0,0,0,4.00608h7.99625a2.003,2.003,0,0,0,0-4.00608Z"/><path d="M88.01877,123.992H84.02065a2.003,2.003,0,0,0,0,4.00608h3.99812a2.003,2.003,0,0,0,0-4.00608Z"/><path d="M108.00939,123.992h-3.99812a2.003,2.003,0,0,0,0,4.00608h3.99812a2.003,2.003,0,0,0,0-4.00608Z"/><path d="M110.00845,102.96h-3.99812a2.003,2.003,0,0,0,0,4.00608h3.99812a2.003,2.003,0,0,0,0-4.00608Z"/><path d="M120.00375,111.97372a2.00115,2.00115,0,0,0-1.99906-2.003h-3.99812a2.003,2.003,0,0,0,0,4.00608h3.99812A2.00115,2.00115,0,0,0,120.00375,111.97372Z"/><path d="M99.01361,96.95091H95.01549a2.003,2.003,0,0,0,0,4.00608h3.99812a2.003,2.003,0,0,0,0-4.00608Z"/><path d="M126.00094,118.98436h-7.99625a2.003,2.003,0,0,0,0,4.00608h7.99625a2.003,2.003,0,0,0,0-4.00608Z"/><ellipse ry="2.00304" rx="1.99906" cy="80.92658" cx="76.0244"/><text font-family="'Helvetica Neue', Helvetica, Arial-Unicode, Arial, Sans-serif" font-weight="bold" font-size="5px" fill="#000000" y="143" x="0">Created by WEBTECHOPS LLP</text><text font-family="'Helvetica Neue', Helvetica, Arial-Unicode, Arial, Sans-serif" font-weight="bold" font-size="5px" fill="#000000" y="148" x="0">from the Noun Project</text></svg>